<svg
          id="Layer_1"
          data-name="Layer 1"
          xmlns="http://www.w3.org/2000/svg"
          viewBox="0 0 173.33 200"
        >
          <g>
            <path
              className="svgfill"
              d="M170.12,31.67h-3.33v6.66h3.33a10,10,0,0,1,10,10v90h-160v-90a10,10,0,0,1,10-10h3.34V31.67H30.12A16.67,16.67,0,0,0,13.46,48.33v100A16.68,16.68,0,0,0,30.12,165H78.83L67.72,198.33H56.79V205h86.66v-6.67H132.52L121.41,165h48.71a16.69,16.69,0,0,0,16.67-16.67v-100a16.68,16.68,0,0,0-16.67-16.66ZM125.5,198.33H74.75L85.86,165h28.53Zm54.62-50a10,10,0,0,1-10,10h-140a10,10,0,0,1-10-10V145h160Zm0,0"
              transform="translate(-13.46 -5)"
            />
            <path
              className="svgfill"
              d="M150.12,5h-100a10,10,0,0,0-10,10V131.67h6.67V15a3.33,3.33,0,0,1,3.33-3.33h100A3.33,3.33,0,0,1,153.45,15V131.67h6.67V15a10,10,0,0,0-10-10Zm0,0"
              transform="translate(-13.46 -5)"
            />
            <path
              className="svgfill"
              d="M146.47,85a16.65,16.65,0,0,0-16.35-13.35H86.7a16.33,16.33,0,0,0,0-20h43.42A16.67,16.67,0,1,0,113.46,35a16.45,16.45,0,0,0,3.42,10H73.46a16.67,16.67,0,1,0,0,33.33h43.42a16.33,16.33,0,0,0,0,20H76.79A16.83,16.83,0,1,0,90,105h43.42v-.33a16.66,16.66,0,0,0,13-19.65ZM130.12,25a10,10,0,1,1-10,10,10,10,0,0,1,10-10ZM73.46,71.67a10,10,0,1,1,10-10,10,10,0,0,1-10,10ZM76.79,125a10,10,0,1,1,10-10,10,10,0,0,1-10,10Zm53.33-26.67a10,10,0,1,1,10-10,10,10,0,0,1-10,10Zm0,0"
              transform="translate(-13.46 -5)"
            />
            <rect
              className="svgfill"
              x="113.33"
              y="26.67"
              width="6.67"
              height="6.67"
            />
            <rect
              className="svgfill"
              x="56.66"
              y="53.33"
              width="6.67"
              height="6.67"
            />
            <rect
              className="svgfill"
              x="113.33"
              y="80"
              width="6.67"
              height="6.67"
            />
            <rect
              className="svgfill"
              x="60"
              y="106.67"
              width="6.67"
              height="6.67"
            />
            <rect
              className="svgfill"
              x="40"
              y="13.33"
              width="6.67"
              height="6.67"
            />
            <rect
              className="svgfill"
              x="53.33"
              y="13.33"
              width="6.67"
              height="6.67"
            />
            <rect
              className="svgfill"
              x="66.67"
              y="13.33"
              width="6.67"
              height="6.67"
            />
          </g>
        </svg>